<?xml version="1.0" standalone="no"?>
<!DOCTYPE svg PUBLIC "-//W3C//DTD SVG 20010904//EN"
 "http://www.w3.org/TR/2001/REC-SVG-20010904/DTD/svg10.dtd">
<svg version="1.0" xmlns="http://www.w3.org/2000/svg"
 width="260.000000pt" height="260.000000pt" viewBox="0 0 260.000000 260.000000"
 preserveAspectRatio="xMidYMid meet">
<metadata>
Created by potrace 1.11, written by Peter Selinger 2001-2013
</metadata>
<g transform="translate(0.000000,260.000000) scale(0.100000,-0.100000)"
fill="#000000" stroke="none">
<path d="M508 2044 c-156 -36 -258 -132 -312 -296 -45 -135 -55 -235 -52 -548
3 -295 19 -412 75 -534 80 -175 251 -262 496 -250 255 12 395 126 455 372 26
106 29 132 36 335 5 124 4 181 -4 186 -6 3 -127 6 -269 6 l-258 0 -3 -123 -3
-122 110 0 110 0 -5 -77 c-8 -109 -29 -207 -56 -256 -33 -59 -77 -81 -159 -81
-57 0 -72 4 -102 26 -19 15 -43 46 -54 70 -40 86 -48 166 -48 493 0 261 3 322
18 386 31 134 86 189 188 189 116 0 175 -62 196 -207 4 -30 11 -43 22 -44 79
-4 285 -3 294 3 17 10 -19 162 -58 244 -60 126 -158 201 -298 230 -83 18 -239
16 -319 -2z"/>
<path d="M1734 2045 c-185 -40 -296 -167 -345 -396 -17 -78 -21 -140 -24 -359
-4 -305 5 -420 47 -550 69 -218 211 -318 459 -325 345 -10 509 154 548 545 11
119 11 447 0 560 -32 309 -145 474 -360 525 -78 18 -242 18 -325 0z m233 -236
c108 -41 135 -143 138 -534 5 -474 -32 -598 -180 -621 -49 -7 -113 8 -147 36
-28 22 -64 92 -73 139 -19 111 -23 188 -21 446 2 234 6 304 20 361 20 84 57
146 100 167 36 18 123 22 163 6z"/>
</g>
</svg>
